<?xml version="1.0" encoding="UTF-8"?><svg xmlns="http://www.w3.org/2000/svg" xmlns:xlink="http://www.w3.org/1999/xlink" viewBox="0 0 50 50" version="1.1"><path d="M25 12C11.543 12 1 17.71 1 25s10.543 13 24 13 24-5.71 24-13-10.543-13-24-13zm-2.492 4h2.62l-.831 4h2.34c1.484 0 2.48.207 3.047.727.554.511.722 1.351.5 2.496L29.144 28H26.48l.957-4.418c.118-.605.07-1.027-.132-1.25-.203-.223-.649-.332-1.317-.332h-2.097l-1.266 6H20zM11 20h5.332c2.543 0 4.082 1.703 3.48 4.246C19.113 27.2 17.239 28 13.793 28h-1.648l-.524 3H8.973zm21 0h5.332c2.543 0 4.082 1.703 3.48 4.246C40.114 27.2 38.239 28 34.794 28h-1.648l-.524 3h-2.648zm-18.73 2l-.754 4h1.71c1.481 0 2.856-.168 3.086-2.375.086-.855-.269-1.625-1.98-1.625zm21 0l-.754 4h1.71c1.481 0 2.856-.168 3.087-2.375.085-.855-.27-1.625-1.981-1.625z" id="surface1"/><metadata><rdf:RDF xmlns:rdf="http://www.w3.org/1999/02/22-rdf-syntax-ns#" xmlns:rdfs="http://www.w3.org/2000/01/rdf-schema#" xmlns:dc="http://purl.org/dc/elements/1.1/"><rdf:Description about="https://iconscout.com/legal#licenses" dc:title="php,logo,filled" dc:description="php,logo,filled" dc:publisher="Iconscout" dc:date="2017-12-09" dc:format="image/svg+xml" dc:language="en"><dc:creator><rdf:Bag><rdf:li>Icons8</rdf:li></rdf:Bag></dc:creator></rdf:Description></rdf:RDF></metadata></svg>